<svg xmlns="http://www.w3.org/2000/svg" version="1.1" xmlns:xlink="http://www.w3.org/1999/xlink" xmlns:svgjs="http://svgjs.com/svgjs" width="1920" height="400" preserveAspectRatio="none" viewBox="0 0 1920 400"><g mask="url(&quot;#SvgjsMask1014&quot;)" fill="none"><path d="M 0,81 C 76.8,100.4 230.4,177.6 384,178 C 537.6,178.4 614.4,89.8 768,83 C 921.6,76.2 998.4,147.6 1152,144 C 1305.6,140.4 1382.4,71 1536,65 C 1689.6,59 1843.2,104.2 1920,114L1920 400L0 400z" fill="#184a7e"></path><path d="M 0,227 C 128,254.8 384,369.4 640,366 C 896,362.6 1024,218 1280,210 C 1536,202 1792,302.8 1920,326L1920 400L0 400z" fill="#2264ab"></path></g><defs><mask id="SvgjsMask1014"><rect width="1920" height="400" fill="#ffffff"></rect></mask></defs></svg>